<svg xmlns="http://www.w3.org/2000/svg" viewBox="0 0 32 32"><title>ArcGIS_SDK_Glyph_32</title><path d="M14.491 30a.183.183 0 0 1-.181-.163l-.381-3.409-3.336-1.214-2.483 2.367a.183.183 0 0 1-.244.008l-2.312-1.94a.183.183 0 0 1-.034-.241l1.348-2.028a3.488 3.488 0 0 1 1.16-1.09l1.823-1.052A8.286 8.286 0 0 0 16 23.93a8.408 8.408 0 0 0 6.151-2.69l1.82 1.051a3.49 3.49 0 0 1 1.16 1.09l1.35 2.028a.183.183 0 0 1-.035.241l-2.312 1.94a.183.183 0 0 1-.244-.008l-2.483-2.367-3.336 1.214-.38 3.41a.183.183 0 0 1-.182.162zM14 4.864a2.961 2.961 0 0 0-.308-1.315L12.68 1.508a.183.183 0 0 0-.164-.102.18.18 0 0 0-.062.011L9.618 2.45a.183.183 0 0 0-.115.215l.808 3.334L7.59 8.28 4.45 6.905a.183.183 0 0 0-.232.076L2.708 9.594a.183.183 0 0 0 .05.24l2.762 2.034-.616 3.496-3.292.967a.183.183 0 0 0-.128.207l.524 2.972a.182.182 0 0 0 .18.15h.011l2.431-.154a3.49 3.49 0 0 0 1.523-.46l1.82-1.05a8.145 8.145 0 0 1-.376-2.482A8.37 8.37 0 0 1 14 7.374zm4 0a2.961 2.961 0 0 1 .308-1.315l1.013-2.041a.183.183 0 0 1 .163-.102.18.18 0 0 1 .062.011l2.836 1.032a.183.183 0 0 1 .115.215l-.808 3.334 2.72 2.282 3.142-1.375a.183.183 0 0 1 .232.076l1.509 2.613a.183.183 0 0 1-.05.24l-2.762 2.034.616 3.496 3.292.967a.183.183 0 0 1 .128.207l-.524 2.972a.182.182 0 0 1-.18.15h-.011l-2.431-.154a3.49 3.49 0 0 1-1.523-.46l-1.82-1.05a8.145 8.145 0 0 0 .376-2.482A8.37 8.37 0 0 0 18 7.374zM16 19.3a3.8 3.8 0 1 1 3.8-3.8 3.8 3.8 0 0 1-3.8 3.8z" fill="#832fbc" id="icons"/></svg>